<svg width="40" height="40" viewBox="0 0 40 40" fill="none" xmlns="http://www.w3.org/2000/svg">
<path d="M26.6667 3.33333V10M13.3333 3.33333V10" stroke="url(#paint0_linear_2703_2268)" stroke-width="2.34375" stroke-linecap="round" stroke-linejoin="round"/>
<path d="M21.6667 6.66667H18.3333C12.0479 6.66667 8.90525 6.66667 6.95262 8.61928C5 10.5719 5 13.7146 5 20V23.3333C5 29.6187 5 32.7615 6.95262 34.714C8.90525 36.6667 12.0479 36.6667 18.3333 36.6667H21.6667C27.952 36.6667 31.0948 36.6667 33.0473 34.714C35 32.7615 35 29.6187 35 23.3333V20C35 13.7146 35 10.5719 33.0473 8.61928C31.0948 6.66667 27.952 6.66667 21.6667 6.66667Z" stroke="url(#paint1_linear_2703_2268)" stroke-width="2.34375" stroke-linecap="round" stroke-linejoin="round"/>
<path d="M5 16.6667H35" stroke="url(#paint2_linear_2703_2268)" stroke-width="2.34375" stroke-linecap="round" stroke-linejoin="round"/>
<path d="M18.3333 23.3333H26.6667M13.3333 23.3333H13.3483M21.6667 30H13.3333M26.6667 30H26.6517" stroke="url(#paint3_linear_2703_2268)" stroke-width="2.34375" stroke-linecap="round" stroke-linejoin="round"/>
<defs>
<linearGradient id="paint0_linear_2703_2268" x1="20" y1="3.33333" x2="20" y2="10" gradientUnits="userSpaceOnUse">
<stop stop-color="#3ABA72"/>
<stop offset="1" stop-color="#C9D857"/>
</linearGradient>
<linearGradient id="paint1_linear_2703_2268" x1="20" y1="6.66667" x2="20" y2="36.6667" gradientUnits="userSpaceOnUse">
<stop stop-color="#3ABA72"/>
<stop offset="1" stop-color="#C9D857"/>
</linearGradient>
<linearGradient id="paint2_linear_2703_2268" x1="20" y1="16.6667" x2="20" y2="17.6667" gradientUnits="userSpaceOnUse">
<stop stop-color="#3ABA72"/>
<stop offset="1" stop-color="#C9D857"/>
</linearGradient>
<linearGradient id="paint3_linear_2703_2268" x1="20" y1="23.3333" x2="20" y2="30" gradientUnits="userSpaceOnUse">
<stop stop-color="#3ABA72"/>
<stop offset="1" stop-color="#C9D857"/>
</linearGradient>
</defs>
</svg>
