<svg width="48" height="48" viewBox="0 0 48 48" fill="none" xmlns="http://www.w3.org/2000/svg">
<path d="M32 4V12M16 4V12" stroke="url(#paint0_linear_2703_2390)" stroke-width="2.8125" stroke-linecap="round" stroke-linejoin="round"/>
<path d="M26 8H22C14.4575 8 10.6863 8 8.34314 10.3431C6 12.6863 6 16.4575 6 24V28C6 35.5424 6 39.3138 8.34314 41.6568C10.6863 44 14.4575 44 22 44H26C33.5424 44 37.3138 44 39.6568 41.6568C42 39.3138 42 35.5424 42 28V24C42 16.4575 42 12.6863 39.6568 10.3431C37.3138 8 33.5424 8 26 8Z" stroke="url(#paint1_linear_2703_2390)" stroke-width="2.8125" stroke-linecap="round" stroke-linejoin="round"/>
<path d="M6 20H42" stroke="url(#paint2_linear_2703_2390)" stroke-width="2.8125" stroke-linecap="round" stroke-linejoin="round"/>
<path d="M22 28H32M16 28H16.018M26 36H16M32 36H31.982" stroke="url(#paint3_linear_2703_2390)" stroke-width="2.8125" stroke-linecap="round" stroke-linejoin="round"/>
<defs>
<linearGradient id="paint0_linear_2703_2390" x1="24" y1="4" x2="24" y2="12" gradientUnits="userSpaceOnUse">
<stop stop-color="#3ABA72"/>
<stop offset="1" stop-color="#C9D857"/>
</linearGradient>
<linearGradient id="paint1_linear_2703_2390" x1="24" y1="8" x2="24" y2="44" gradientUnits="userSpaceOnUse">
<stop stop-color="#3ABA72"/>
<stop offset="1" stop-color="#C9D857"/>
</linearGradient>
<linearGradient id="paint2_linear_2703_2390" x1="24" y1="20" x2="24" y2="21" gradientUnits="userSpaceOnUse">
<stop stop-color="#3ABA72"/>
<stop offset="1" stop-color="#C9D857"/>
</linearGradient>
<linearGradient id="paint3_linear_2703_2390" x1="24" y1="28" x2="24" y2="36" gradientUnits="userSpaceOnUse">
<stop stop-color="#3ABA72"/>
<stop offset="1" stop-color="#C9D857"/>
</linearGradient>
</defs>
</svg>
