<svg width="17" height="17" viewBox="0 0 17 17" fill="none" xmlns="http://www.w3.org/2000/svg">
<path d="M6.41097 3.99846L6.12911 3.36428C5.94482 2.94962 5.85267 2.74228 5.71486 2.58361C5.54215 2.38476 5.31702 2.23846 5.06517 2.1614C4.86421 2.0999 4.63731 2.0999 4.18354 2.0999C3.51973 2.0999 3.18783 2.0999 2.9092 2.22751C2.581 2.37782 2.2846 2.7042 2.1665 3.04532C2.06625 3.33491 2.09497 3.6325 2.1524 4.22769C2.76373 10.563 6.23707 14.0363 12.5724 14.6477C13.1676 14.7051 13.4652 14.7338 13.7547 14.6336C14.0959 14.5155 14.4223 14.2191 14.5726 13.8909C14.7002 13.6123 14.7002 13.2803 14.7002 12.6165C14.7002 12.1628 14.7002 11.9359 14.6387 11.735C14.5616 11.4831 14.4153 11.258 14.2165 11.0852C14.0578 10.9475 13.8505 10.8553 13.4358 10.671L12.8016 10.3891C12.3526 10.1896 12.128 10.0897 11.8999 10.068C11.6815 10.0473 11.4613 10.0779 11.2569 10.1575C11.0434 10.2407 10.8546 10.398 10.4771 10.7126C10.1013 11.0257 9.91342 11.1823 9.68382 11.2662C9.48026 11.3406 9.21118 11.3681 8.99684 11.3365C8.75499 11.3009 8.56984 11.2019 8.19947 11.004C7.04727 10.3882 6.41186 9.75283 5.7961 8.60063C5.59819 8.23026 5.49924 8.04511 5.4636 7.80326C5.43201 7.58892 5.45955 7.31984 5.5339 7.11628C5.61778 6.8867 5.77436 6.6988 6.08753 6.323C6.40213 5.94548 6.55943 5.75672 6.6426 5.54314C6.72219 5.33876 6.75283 5.11858 6.73206 4.90024C6.71035 4.67207 6.61056 4.44753 6.41097 3.99846Z" stroke="url(#paint0_linear_2703_2420)" stroke-width="1.05" stroke-linecap="round"/>
<defs>
<linearGradient id="paint0_linear_2703_2420" x1="8.40018" y1="2.0999" x2="8.40018" y2="14.6999" gradientUnits="userSpaceOnUse">
<stop stop-color="#3ABA72"/>
<stop offset="1" stop-color="#C9D857"/>
</linearGradient>
</defs>
</svg>
