<svg width="40" height="40" viewBox="0 0 40 40" fill="none" xmlns="http://www.w3.org/2000/svg">
<path d="M5 6.66667V33.3333C5 34.9047 5 35.6903 5.48815 36.1785C5.97632 36.6667 6.76198 36.6667 8.33333 36.6667H31.6667C33.238 36.6667 34.0237 36.6667 34.5118 36.1785C35 35.6903 35 34.9047 35 33.3333V6.66667" stroke="url(#paint0_linear_2703_2248)" stroke-width="2.34375" stroke-linecap="round" stroke-linejoin="round"/>
<path d="M17.5 13.3333V15.8333M17.5 15.8333V18.3333M17.5 15.8333H22.5M22.5 13.3333V15.8333M22.5 15.8333V18.3333" stroke="url(#paint1_linear_2703_2248)" stroke-width="2.34375" stroke-linecap="round" stroke-linejoin="round"/>
<path d="M23.3333 36.6666V29.9998C23.3333 28.159 21.841 26.6665 20 26.6665C18.159 26.6665 16.6667 28.159 16.6667 29.9998V36.6666" stroke="url(#paint2_linear_2703_2248)" stroke-width="2.34375" stroke-linecap="round" stroke-linejoin="round"/>
<path d="M3.33334 6.66667H13.3333C14.3998 4.71212 16.9828 3.33333 20 3.33333C23.0172 3.33333 25.6002 4.71212 26.6667 6.66667H36.6667" stroke="url(#paint3_linear_2703_2248)" stroke-width="2.34375" stroke-linecap="round" stroke-linejoin="round"/>
<path d="M10 13.3333H11.6667M10 20H11.6667M10 26.6667H11.6667" stroke="url(#paint4_linear_2703_2248)" stroke-width="2.34375" stroke-linecap="round" stroke-linejoin="round"/>
<path d="M28.3333 13.3333H30M28.3333 20H30M28.3333 26.6667H30" stroke="url(#paint5_linear_2703_2248)" stroke-width="2.34375" stroke-linecap="round" stroke-linejoin="round"/>
<defs>
<linearGradient id="paint0_linear_2703_2248" x1="20" y1="6.66667" x2="20" y2="36.6667" gradientUnits="userSpaceOnUse">
<stop stop-color="#3ABA72"/>
<stop offset="1" stop-color="#C9D857"/>
</linearGradient>
<linearGradient id="paint1_linear_2703_2248" x1="20" y1="13.3333" x2="20" y2="18.3333" gradientUnits="userSpaceOnUse">
<stop stop-color="#3ABA72"/>
<stop offset="1" stop-color="#C9D857"/>
</linearGradient>
<linearGradient id="paint2_linear_2703_2248" x1="20" y1="26.6665" x2="20" y2="36.6666" gradientUnits="userSpaceOnUse">
<stop stop-color="#3ABA72"/>
<stop offset="1" stop-color="#C9D857"/>
</linearGradient>
<linearGradient id="paint3_linear_2703_2248" x1="20" y1="3.33333" x2="20" y2="6.66667" gradientUnits="userSpaceOnUse">
<stop stop-color="#3ABA72"/>
<stop offset="1" stop-color="#C9D857"/>
</linearGradient>
<linearGradient id="paint4_linear_2703_2248" x1="10.8333" y1="13.3333" x2="10.8333" y2="26.6667" gradientUnits="userSpaceOnUse">
<stop stop-color="#3ABA72"/>
<stop offset="1" stop-color="#C9D857"/>
</linearGradient>
<linearGradient id="paint5_linear_2703_2248" x1="29.1667" y1="13.3333" x2="29.1667" y2="26.6667" gradientUnits="userSpaceOnUse">
<stop stop-color="#3ABA72"/>
<stop offset="1" stop-color="#C9D857"/>
</linearGradient>
</defs>
</svg>
