<svg width="48" height="48" viewBox="0 0 48 48" fill="none" xmlns="http://www.w3.org/2000/svg">
<path d="M6 8V40C6 41.8856 6 42.8284 6.58578 43.4142C7.17158 44 8.11438 44 10 44H38C39.8856 44 40.8284 44 41.4142 43.4142C42 42.8284 42 41.8856 42 40V8" stroke="url(#paint0_linear_2703_2309)" stroke-width="2.8125" stroke-linecap="round" stroke-linejoin="round"/>
<path d="M21 16V19M21 19V22M21 19H27M27 16V19M27 19V22" stroke="url(#paint1_linear_2703_2309)" stroke-width="2.8125" stroke-linecap="round" stroke-linejoin="round"/>
<path d="M28 44V35.9998C28 33.7908 26.2092 31.9998 24 31.9998C21.7908 31.9998 20 33.7908 20 35.9998V44" stroke="url(#paint2_linear_2703_2309)" stroke-width="2.8125" stroke-linecap="round" stroke-linejoin="round"/>
<path d="M4 8H16C17.2798 5.65454 20.3794 4 24 4C27.6206 4 30.7202 5.65454 32 8H44" stroke="url(#paint3_linear_2703_2309)" stroke-width="2.8125" stroke-linecap="round" stroke-linejoin="round"/>
<path d="M12 16H14M12 24H14M12 32H14" stroke="url(#paint4_linear_2703_2309)" stroke-width="2.8125" stroke-linecap="round" stroke-linejoin="round"/>
<path d="M34 16H36M34 24H36M34 32H36" stroke="url(#paint5_linear_2703_2309)" stroke-width="2.8125" stroke-linecap="round" stroke-linejoin="round"/>
<defs>
<linearGradient id="paint0_linear_2703_2309" x1="24" y1="8" x2="24" y2="44" gradientUnits="userSpaceOnUse">
<stop stop-color="#3ABA72"/>
<stop offset="1" stop-color="#C9D857"/>
</linearGradient>
<linearGradient id="paint1_linear_2703_2309" x1="24" y1="16" x2="24" y2="22" gradientUnits="userSpaceOnUse">
<stop stop-color="#3ABA72"/>
<stop offset="1" stop-color="#C9D857"/>
</linearGradient>
<linearGradient id="paint2_linear_2703_2309" x1="24" y1="31.9998" x2="24" y2="44" gradientUnits="userSpaceOnUse">
<stop stop-color="#3ABA72"/>
<stop offset="1" stop-color="#C9D857"/>
</linearGradient>
<linearGradient id="paint3_linear_2703_2309" x1="24" y1="4" x2="24" y2="8" gradientUnits="userSpaceOnUse">
<stop stop-color="#3ABA72"/>
<stop offset="1" stop-color="#C9D857"/>
</linearGradient>
<linearGradient id="paint4_linear_2703_2309" x1="13" y1="16" x2="13" y2="32" gradientUnits="userSpaceOnUse">
<stop stop-color="#3ABA72"/>
<stop offset="1" stop-color="#C9D857"/>
</linearGradient>
<linearGradient id="paint5_linear_2703_2309" x1="35" y1="16" x2="35" y2="32" gradientUnits="userSpaceOnUse">
<stop stop-color="#3ABA72"/>
<stop offset="1" stop-color="#C9D857"/>
</linearGradient>
</defs>
</svg>
