<svg width="17" height="17" viewBox="0 0 17 17" fill="none" xmlns="http://www.w3.org/2000/svg">
<path d="M1.40002 4.1999L6.23914 6.94178C8.02314 7.9526 8.7769 7.9526 10.5609 6.94178L15.4 4.1999" stroke="url(#paint0_linear_2703_2361)" stroke-width="1.05" stroke-linejoin="round"/>
<path d="M1.41106 9.43282C1.45682 11.5787 1.47971 12.6516 2.2715 13.4465C3.06328 14.2413 4.16526 14.2689 6.36921 14.3243C7.72753 14.3584 9.07251 14.3584 10.4309 14.3243C12.6348 14.2689 13.7368 14.2413 14.5286 13.4465C15.3204 12.6516 15.3433 11.5787 15.389 9.43282C15.4037 8.74283 15.4037 8.05697 15.389 7.36698C15.3433 5.2211 15.3204 4.14817 14.5286 3.35337C13.7368 2.55856 12.6348 2.53088 10.4309 2.4755C9.07251 2.44137 7.72753 2.44137 6.3692 2.4755C4.16526 2.53087 3.06328 2.55855 2.27149 3.35336C1.4797 4.14816 1.45682 5.2211 1.41106 7.36698C1.39634 8.05697 1.39635 8.74283 1.41106 9.43282Z" stroke="url(#paint1_linear_2703_2361)" stroke-width="1.05" stroke-linejoin="round"/>
<defs>
<linearGradient id="paint0_linear_2703_2361" x1="8.40002" y1="4.1999" x2="8.40002" y2="7.6999" gradientUnits="userSpaceOnUse">
<stop stop-color="#3ABA72"/>
<stop offset="1" stop-color="#C9D857"/>
</linearGradient>
<linearGradient id="paint1_linear_2703_2361" x1="8.40003" y1="2.4499" x2="8.40003" y2="14.3499" gradientUnits="userSpaceOnUse">
<stop stop-color="#3ABA72"/>
<stop offset="1" stop-color="#C9D857"/>
</linearGradient>
</defs>
</svg>
