<svg width="40" height="40" viewBox="0 0 40 40" fill="none" xmlns="http://www.w3.org/2000/svg">
<path d="M13.3333 26.6667L27.8668 25.4555C32.4143 25.0767 33.4352 24.0833 33.9392 19.5482L35 10" stroke="url(#paint0_linear_2703_2261)" stroke-width="2.34375" stroke-linecap="round"/>
<path d="M10 10H36.6667" stroke="url(#paint1_linear_2703_2261)" stroke-width="2.34375" stroke-linecap="round"/>
<path d="M10 36.6667C11.8409 36.6667 13.3333 35.1743 13.3333 33.3333C13.3333 31.4924 11.8409 30 10 30C8.15905 30 6.66666 31.4924 6.66666 33.3333C6.66666 35.1743 8.15905 36.6667 10 36.6667Z" stroke="url(#paint2_linear_2703_2261)" stroke-width="2.34375"/>
<path d="M28.3333 36.6667C30.1743 36.6667 31.6667 35.1743 31.6667 33.3333C31.6667 31.4924 30.1743 30 28.3333 30C26.4924 30 25 31.4924 25 33.3333C25 35.1743 26.4924 36.6667 28.3333 36.6667Z" stroke="url(#paint3_linear_2703_2261)" stroke-width="2.34375"/>
<path d="M13.3333 33.3333H25" stroke="url(#paint4_linear_2703_2261)" stroke-width="2.34375" stroke-linecap="round"/>
<path d="M3.33334 3.33333H4.94334C6.5178 3.33333 7.89024 4.37432 8.2721 5.85822L13.2309 25.1275C13.4815 26.1013 13.267 27.1328 12.6471 27.936L11.0536 30" stroke="url(#paint5_linear_2703_2261)" stroke-width="2.34375" stroke-linecap="round"/>
<defs>
<linearGradient id="paint0_linear_2703_2261" x1="24.1667" y1="10" x2="24.1667" y2="26.6667" gradientUnits="userSpaceOnUse">
<stop stop-color="#3ABA72"/>
<stop offset="1" stop-color="#C9D857"/>
</linearGradient>
<linearGradient id="paint1_linear_2703_2261" x1="23.3333" y1="10" x2="23.3333" y2="11" gradientUnits="userSpaceOnUse">
<stop stop-color="#3ABA72"/>
<stop offset="1" stop-color="#C9D857"/>
</linearGradient>
<linearGradient id="paint2_linear_2703_2261" x1="10" y1="30" x2="10" y2="36.6667" gradientUnits="userSpaceOnUse">
<stop stop-color="#3ABA72"/>
<stop offset="1" stop-color="#C9D857"/>
</linearGradient>
<linearGradient id="paint3_linear_2703_2261" x1="28.3333" y1="30" x2="28.3333" y2="36.6667" gradientUnits="userSpaceOnUse">
<stop stop-color="#3ABA72"/>
<stop offset="1" stop-color="#C9D857"/>
</linearGradient>
<linearGradient id="paint4_linear_2703_2261" x1="19.1667" y1="33.3333" x2="19.1667" y2="34.3333" gradientUnits="userSpaceOnUse">
<stop stop-color="#3ABA72"/>
<stop offset="1" stop-color="#C9D857"/>
</linearGradient>
<linearGradient id="paint5_linear_2703_2261" x1="8.33334" y1="3.33333" x2="8.33334" y2="30" gradientUnits="userSpaceOnUse">
<stop stop-color="#3ABA72"/>
<stop offset="1" stop-color="#C9D857"/>
</linearGradient>
</defs>
</svg>
