<svg width="48" height="48" viewBox="0 0 48 48" fill="none" xmlns="http://www.w3.org/2000/svg">
<path d="M16 32L33.4402 30.5466C38.8972 30.092 40.1222 28.9 40.727 23.4578L42 12" stroke="url(#paint0_linear_2703_2322)" stroke-width="2.8125" stroke-linecap="round"/>
<path d="M12 12H44" stroke="url(#paint1_linear_2703_2322)" stroke-width="2.8125" stroke-linecap="round"/>
<path d="M12 44C14.2091 44 16 42.2091 16 40C16 37.7909 14.2091 36 12 36C9.79086 36 8 37.7909 8 40C8 42.2091 9.79086 44 12 44Z" stroke="url(#paint2_linear_2703_2322)" stroke-width="2.8125"/>
<path d="M34 44C36.2091 44 38 42.2091 38 40C38 37.7909 36.2091 36 34 36C31.7909 36 30 37.7909 30 40C30 42.2091 31.7909 44 34 44Z" stroke="url(#paint3_linear_2703_2322)" stroke-width="2.8125"/>
<path d="M16 40H30" stroke="url(#paint4_linear_2703_2322)" stroke-width="2.8125" stroke-linecap="round"/>
<path d="M4 4H5.932C7.82136 4 9.46828 5.24918 9.92652 7.02986L15.877 30.153C16.1777 31.3216 15.9204 32.5594 15.1765 33.5232L13.2643 36" stroke="url(#paint5_linear_2703_2322)" stroke-width="2.8125" stroke-linecap="round"/>
<defs>
<linearGradient id="paint0_linear_2703_2322" x1="29" y1="12" x2="29" y2="32" gradientUnits="userSpaceOnUse">
<stop stop-color="#3ABA72"/>
<stop offset="1" stop-color="#C9D857"/>
</linearGradient>
<linearGradient id="paint1_linear_2703_2322" x1="28" y1="12" x2="28" y2="13" gradientUnits="userSpaceOnUse">
<stop stop-color="#3ABA72"/>
<stop offset="1" stop-color="#C9D857"/>
</linearGradient>
<linearGradient id="paint2_linear_2703_2322" x1="12" y1="36" x2="12" y2="44" gradientUnits="userSpaceOnUse">
<stop stop-color="#3ABA72"/>
<stop offset="1" stop-color="#C9D857"/>
</linearGradient>
<linearGradient id="paint3_linear_2703_2322" x1="34" y1="36" x2="34" y2="44" gradientUnits="userSpaceOnUse">
<stop stop-color="#3ABA72"/>
<stop offset="1" stop-color="#C9D857"/>
</linearGradient>
<linearGradient id="paint4_linear_2703_2322" x1="23" y1="40" x2="23" y2="41" gradientUnits="userSpaceOnUse">
<stop stop-color="#3ABA72"/>
<stop offset="1" stop-color="#C9D857"/>
</linearGradient>
<linearGradient id="paint5_linear_2703_2322" x1="10" y1="4" x2="10" y2="36" gradientUnits="userSpaceOnUse">
<stop stop-color="#3ABA72"/>
<stop offset="1" stop-color="#C9D857"/>
</linearGradient>
</defs>
</svg>
