<svg width="60" height="60" viewBox="0 0 60 60" fill="none" xmlns="http://www.w3.org/2000/svg">
<path d="M42.5 50C45.2614 50 47.5 47.7614 47.5 45C47.5 42.2386 45.2614 40 42.5 40C39.7386 40 37.5 42.2386 37.5 45C37.5 47.7614 39.7386 50 42.5 50Z" stroke="url(#paint0_linear_2703_2349)" stroke-width="3.75"/>
<path d="M17.5 50C20.2614 50 22.5 47.7614 22.5 45C22.5 42.2386 20.2614 40 17.5 40C14.7386 40 12.5 42.2386 12.5 45C12.5 47.7614 14.7386 50 17.5 50Z" stroke="url(#paint1_linear_2703_2349)" stroke-width="3.75"/>
<path d="M12.5 44.931C9.7582 44.7945 8.04775 44.3865 6.83057 43.1695C5.6134 41.9522 5.20555 40.2417 5.06887 37.5M22.5 45H37.5M47.5 44.931C50.2417 44.7945 51.9522 44.3865 53.1695 43.1695C55 41.3387 55 38.3925 55 32.5V27.5H43.25C41.3887 27.5 40.458 27.5 39.705 27.2552C38.1827 26.7607 36.9893 25.5672 36.4948 24.0451C36.25 23.2919 36.25 22.3613 36.25 20.5C36.25 17.7081 36.25 16.3121 35.883 15.1824C35.141 12.8991 33.351 11.109 31.0678 10.3671C29.938 10 28.542 10 25.75 10H5" stroke="url(#paint2_linear_2703_2349)" stroke-width="3.75" stroke-linecap="round" stroke-linejoin="round"/>
<path d="M5 20H20" stroke="url(#paint3_linear_2703_2349)" stroke-width="3.75" stroke-linecap="round" stroke-linejoin="round"/>
<path d="M5 27.5H15" stroke="url(#paint4_linear_2703_2349)" stroke-width="3.75" stroke-linecap="round" stroke-linejoin="round"/>
<path d="M36.25 15H40.803C44.4415 15 46.2605 15 47.741 15.8843C49.2215 16.7686 50.084 18.3703 51.809 21.5738L55 27.5" stroke="url(#paint5_linear_2703_2349)" stroke-width="3.75" stroke-linecap="round" stroke-linejoin="round"/>
<defs>
<linearGradient id="paint0_linear_2703_2349" x1="42.5" y1="40" x2="42.5" y2="50" gradientUnits="userSpaceOnUse">
<stop stop-color="#3ABA72"/>
<stop offset="1" stop-color="#C9D857"/>
</linearGradient>
<linearGradient id="paint1_linear_2703_2349" x1="17.5" y1="40" x2="17.5" y2="50" gradientUnits="userSpaceOnUse">
<stop stop-color="#3ABA72"/>
<stop offset="1" stop-color="#C9D857"/>
</linearGradient>
<linearGradient id="paint2_linear_2703_2349" x1="30" y1="10" x2="30" y2="45" gradientUnits="userSpaceOnUse">
<stop stop-color="#3ABA72"/>
<stop offset="1" stop-color="#C9D857"/>
</linearGradient>
<linearGradient id="paint3_linear_2703_2349" x1="12.5" y1="20" x2="12.5" y2="21" gradientUnits="userSpaceOnUse">
<stop stop-color="#3ABA72"/>
<stop offset="1" stop-color="#C9D857"/>
</linearGradient>
<linearGradient id="paint4_linear_2703_2349" x1="10" y1="27.5" x2="10" y2="28.5" gradientUnits="userSpaceOnUse">
<stop stop-color="#3ABA72"/>
<stop offset="1" stop-color="#C9D857"/>
</linearGradient>
<linearGradient id="paint5_linear_2703_2349" x1="45.625" y1="15" x2="45.625" y2="27.5" gradientUnits="userSpaceOnUse">
<stop stop-color="#3ABA72"/>
<stop offset="1" stop-color="#C9D857"/>
</linearGradient>
</defs>
</svg>
