<svg width="40" height="40" viewBox="0 0 40 40" fill="none" xmlns="http://www.w3.org/2000/svg">
<path d="M28.3333 33.3333C30.1743 33.3333 31.6667 31.8409 31.6667 30C31.6667 28.159 30.1743 26.6667 28.3333 26.6667C26.4924 26.6667 25 28.159 25 30C25 31.8409 26.4924 33.3333 28.3333 33.3333Z" stroke="url(#paint0_linear_2703_2410)" stroke-width="2.5"/>
<path d="M11.6667 33.3333C13.5076 33.3333 15 31.8409 15 30C15 28.159 13.5076 26.6667 11.6667 26.6667C9.82571 26.6667 8.33333 28.159 8.33333 30C8.33333 31.8409 9.82571 33.3333 11.6667 33.3333Z" stroke="url(#paint1_linear_2703_2410)" stroke-width="2.5"/>
<path d="M8.33333 29.954C6.50546 29.863 5.36516 29.591 4.55371 28.7797C3.74226 27.9682 3.47036 26.8278 3.37924 25M15 30H25M31.6667 29.954C33.4945 29.863 34.6348 29.591 35.4463 28.7797C36.6667 27.5592 36.6667 25.595 36.6667 21.6667V18.3333H28.8333C27.5925 18.3333 26.972 18.3333 26.47 18.1702C25.4552 17.8405 24.6595 17.0448 24.3298 16.0301C24.1667 15.528 24.1667 14.9075 24.1667 13.6667C24.1667 11.8054 24.1667 10.8748 23.922 10.1216C23.4273 8.5994 22.234 7.40597 20.7118 6.91138C19.9587 6.66667 19.028 6.66667 17.1667 6.66667H3.33333" stroke="url(#paint2_linear_2703_2410)" stroke-width="2.5" stroke-linecap="round" stroke-linejoin="round"/>
<path d="M3.33333 13.3333H13.3333" stroke="url(#paint3_linear_2703_2410)" stroke-width="2.5" stroke-linecap="round" stroke-linejoin="round"/>
<path d="M3.33333 18.3333H9.99999" stroke="url(#paint4_linear_2703_2410)" stroke-width="2.5" stroke-linecap="round" stroke-linejoin="round"/>
<path d="M24.1667 10H27.202C29.6277 10 30.8403 10 31.8273 10.5895C32.8143 11.179 33.3893 12.2469 34.5393 14.3825L36.6667 18.3333" stroke="url(#paint5_linear_2703_2410)" stroke-width="2.5" stroke-linecap="round" stroke-linejoin="round"/>
<defs>
<linearGradient id="paint0_linear_2703_2410" x1="28.3333" y1="26.6667" x2="28.3333" y2="33.3333" gradientUnits="userSpaceOnUse">
<stop stop-color="#3ABA72"/>
<stop offset="1" stop-color="#C9D857"/>
</linearGradient>
<linearGradient id="paint1_linear_2703_2410" x1="11.6667" y1="26.6667" x2="11.6667" y2="33.3333" gradientUnits="userSpaceOnUse">
<stop stop-color="#3ABA72"/>
<stop offset="1" stop-color="#C9D857"/>
</linearGradient>
<linearGradient id="paint2_linear_2703_2410" x1="20" y1="6.66667" x2="20" y2="30" gradientUnits="userSpaceOnUse">
<stop stop-color="#3ABA72"/>
<stop offset="1" stop-color="#C9D857"/>
</linearGradient>
<linearGradient id="paint3_linear_2703_2410" x1="8.33333" y1="13.3333" x2="8.33333" y2="14.3333" gradientUnits="userSpaceOnUse">
<stop stop-color="#3ABA72"/>
<stop offset="1" stop-color="#C9D857"/>
</linearGradient>
<linearGradient id="paint4_linear_2703_2410" x1="6.66666" y1="18.3333" x2="6.66666" y2="19.3333" gradientUnits="userSpaceOnUse">
<stop stop-color="#3ABA72"/>
<stop offset="1" stop-color="#C9D857"/>
</linearGradient>
<linearGradient id="paint5_linear_2703_2410" x1="30.4167" y1="10" x2="30.4167" y2="18.3333" gradientUnits="userSpaceOnUse">
<stop stop-color="#3ABA72"/>
<stop offset="1" stop-color="#C9D857"/>
</linearGradient>
</defs>
</svg>
