<svg width="30" height="36" viewBox="0 0 30 36" fill="none" xmlns="http://www.w3.org/2000/svg">
<path d="M1.25001 28.993V11.3404C1.25001 6.58375 1.25001 4.20542 2.71447 2.72772C4.17894 1.25 6.53596 1.25 11.25 1.25H17.9167C22.6307 1.25 24.9877 1.25 26.4522 2.72772C27.9167 4.20542 27.9167 6.58375 27.9167 11.3404V28.993C27.9167 31.5125 27.9167 32.7722 27.1467 33.268C25.8885 34.0785 23.9435 32.379 22.9652 31.7622C22.1568 31.2523 21.7528 30.9975 21.3042 30.9828C20.8195 30.9668 20.4082 31.2113 19.5348 31.7622L16.35 33.7707C15.4908 34.3123 15.0613 34.5833 14.5833 34.5833C14.1053 34.5833 13.6758 34.3123 12.8167 33.7707L9.63189 31.7622C8.82359 31.2523 8.41944 30.9975 7.97089 30.9828C7.48621 30.9668 7.07489 31.2113 6.20146 31.7622C5.22326 32.379 3.27812 34.0785 2.01992 33.268C1.25001 32.7722 1.25001 31.5125 1.25001 28.993Z" stroke="url(#paint0_linear_2703_2126)" stroke-width="2.5" stroke-linecap="round" stroke-linejoin="round"/>
<defs>
<linearGradient id="paint0_linear_2703_2126" x1="14.5833" y1="1.25" x2="14.5833" y2="34.5833" gradientUnits="userSpaceOnUse">
<stop stop-color="#3ABA72"/>
<stop offset="1" stop-color="#C9D857"/>
</linearGradient>
</defs>
</svg>
