<svg width="33" height="33" viewBox="0 0 33 33" fill="none" xmlns="http://www.w3.org/2000/svg">
<path d="M17.8385 1.17188H14.5052C8.21981 1.17188 5.07713 1.17188 3.12449 3.12449C1.17188 5.07713 1.17188 8.21981 1.17188 14.5052V17.8385C1.17188 24.1239 1.17188 27.2667 3.12449 29.2192C5.07713 31.1719 8.21981 31.1719 14.5052 31.1719H17.8385C24.1239 31.1719 27.2667 31.1719 29.2192 29.2192C31.1719 27.2667 31.1719 24.1239 31.1719 17.8385V14.5052C31.1719 8.21981 31.1719 5.07713 29.2192 3.12449C27.2667 1.17188 24.1239 1.17188 17.8385 1.17188Z" stroke="url(#paint0_linear_2703_2115)" stroke-width="2.34375" stroke-linecap="round" stroke-linejoin="round"/>
<defs>
<linearGradient id="paint0_linear_2703_2115" x1="16.1719" y1="1.17188" x2="16.1719" y2="31.1719" gradientUnits="userSpaceOnUse">
<stop stop-color="#3ABA72"/>
<stop offset="1" stop-color="#C9D857"/>
</linearGradient>
</defs>
</svg>
