<svg width="14" height="14" viewBox="0 0 14 14" fill="none" xmlns="http://www.w3.org/2000/svg">
<path d="M4.83569 2.42363L4.55383 1.78944C4.36953 1.37478 4.27739 1.16744 4.13958 1.00877C3.96687 0.809924 3.74174 0.663624 3.48989 0.586561C3.28892 0.525066 3.06203 0.525066 2.60826 0.525066C1.94445 0.525066 1.61254 0.525066 1.33392 0.652669C1.00572 0.80298 0.709318 1.12936 0.591221 1.47049C0.490967 1.76007 0.519688 2.05767 0.577116 2.65286C1.18845 8.98818 4.66178 12.4615 10.9971 13.0729C11.5923 13.1303 11.8899 13.159 12.1795 13.0587C12.5206 12.9407 12.847 12.6443 12.9973 12.316C13.1249 12.0374 13.1249 11.7055 13.1249 11.0417C13.1249 10.588 13.1249 10.3611 13.0634 10.1601C12.9864 9.90826 12.8401 9.68314 12.6412 9.51038C12.4826 9.37262 12.2752 9.28043 11.8605 9.09612L11.2263 8.8143C10.7773 8.61473 10.5527 8.51491 10.3246 8.49321C10.1062 8.47242 9.88605 8.50308 9.68165 8.58267C9.46808 8.66583 9.27936 8.82312 8.90178 9.13777C8.52602 9.45088 8.33814 9.60747 8.10854 9.69133C7.90498 9.76574 7.6359 9.79325 7.42156 9.76168C7.17971 9.72605 6.99456 9.62707 6.62419 9.42918C5.47199 8.81339 4.83658 8.178 4.22082 7.0258C4.02291 6.65543 3.92396 6.47028 3.88832 6.22843C3.85673 6.01409 3.88427 5.74501 3.95862 5.54145C4.04249 5.31186 4.19908 5.12397 4.51224 4.74817C4.82684 4.37064 4.98415 4.18188 5.06732 3.9683C5.14691 3.76392 5.17754 3.54375 5.15678 3.3254C5.13507 3.09723 5.03528 2.8727 4.83569 2.42363Z" stroke="url(#paint0_linear_2703_2187)" stroke-width="1.05" stroke-linecap="round"/>
<defs>
<linearGradient id="paint0_linear_2703_2187" x1="6.8249" y1="0.525066" x2="6.8249" y2="13.1251" gradientUnits="userSpaceOnUse">
<stop stop-color="#3ABA72"/>
<stop offset="1" stop-color="#C9D857"/>
</linearGradient>
</defs>
</svg>
