<svg width="54" height="39" viewBox="0 0 54 39" fill="none" xmlns="http://www.w3.org/2000/svg">
<path d="M9.375 36.8062C6.6332 36.6697 4.92275 36.2617 3.70557 35.0447C2.4884 33.8274 2.08055 32.1169 1.94387 29.3752M19.375 36.8752H34.375M44.375 36.8062C47.1167 36.6697 48.8272 36.2617 50.0445 35.0447C51.875 33.2139 51.875 30.2677 51.875 24.3752V19.3752H40.125C38.2637 19.3752 37.333 19.3752 36.58 19.1304C35.0577 18.6359 33.8643 17.4424 33.3698 15.9203C33.125 15.1671 33.125 14.2365 33.125 12.3752C33.125 9.58325 33.125 8.1873 32.758 7.05755C32.016 4.77428 30.226 2.98413 27.9428 2.24225C26.813 1.87518 25.417 1.87518 22.625 1.87518H1.875" stroke="url(#paint0_linear_2703_2181)" stroke-width="3.75" stroke-linecap="round" stroke-linejoin="round"/>
<defs>
<linearGradient id="paint0_linear_2703_2181" x1="26.875" y1="1.87518" x2="26.875" y2="36.8752" gradientUnits="userSpaceOnUse">
<stop stop-color="#3ABA72"/>
<stop offset="1" stop-color="#C9D857"/>
</linearGradient>
</defs>
</svg>
