<svg width="36" height="26" viewBox="0 0 36 26" fill="none" xmlns="http://www.w3.org/2000/svg">
<path d="M6.25 24.5375C4.42213 24.4465 3.28183 24.1745 2.47038 23.3631C1.65893 22.5516 1.38703 21.4113 1.29592 19.5835M12.9167 24.5835H22.9167M29.5833 24.5375C31.4112 24.4465 32.5515 24.1745 33.363 23.3631C34.5833 22.1426 34.5833 20.1785 34.5833 16.2501V12.9168H26.75C25.5092 12.9168 24.8887 12.9168 24.3867 12.7536C23.3718 12.424 22.5762 11.6283 22.2465 10.6135C22.0833 10.1114 22.0833 9.49097 22.0833 8.25012C22.0833 6.38883 22.0833 5.4582 21.8387 4.70503C21.344 3.18285 20.1507 1.98942 18.6285 1.49484C17.8753 1.25012 16.9447 1.25012 15.0833 1.25012H1.25" stroke="url(#paint0_linear_2703_2230)" stroke-width="2.5" stroke-linecap="round" stroke-linejoin="round"/>
<defs>
<linearGradient id="paint0_linear_2703_2230" x1="17.9167" y1="1.25012" x2="17.9167" y2="24.5835" gradientUnits="userSpaceOnUse">
<stop stop-color="#3ABA72"/>
<stop offset="1" stop-color="#C9D857"/>
</linearGradient>
</defs>
</svg>
