<svg width="16" height="13" viewBox="0 0 16 13" fill="none" xmlns="http://www.w3.org/2000/svg">
<path d="M0.536039 7.50792C0.581798 9.65384 0.604681 10.7267 1.39647 11.5216C2.18826 12.3164 3.29023 12.344 5.49418 12.3994C6.85251 12.4335 8.19749 12.4335 9.55584 12.3994C11.7598 12.344 12.8617 12.3164 13.6536 11.5216C14.4453 10.7267 14.4682 9.65384 14.5139 7.50792C14.5287 6.81793 14.5287 6.13207 14.5139 5.44208C14.4682 3.2962 14.4453 2.22326 13.6536 1.42846C12.8617 0.633662 11.7598 0.605977 9.55584 0.5506C8.19749 0.516468 6.85251 0.516468 5.49417 0.550593C3.29023 0.605963 2.18826 0.633648 1.39647 1.42846C0.604674 2.22326 0.581798 3.2962 0.536032 5.44208C0.521318 6.13207 0.521325 6.81793 0.536039 7.50792Z" stroke="url(#paint0_linear_2703_2238)" stroke-width="1.05" stroke-linejoin="round"/>
<defs>
<linearGradient id="paint0_linear_2703_2238" x1="7.52501" y1="0.525" x2="7.52501" y2="12.425" gradientUnits="userSpaceOnUse">
<stop stop-color="#3ABA72"/>
<stop offset="1" stop-color="#C9D857"/>
</linearGradient>
</defs>
</svg>
