<svg width="44" height="54" viewBox="0 0 44 54" fill="none" xmlns="http://www.w3.org/2000/svg">
<path d="M1.87501 43.4895V17.0107C1.87501 9.87563 1.87501 6.30813 4.07171 4.09158C6.26841 1.875 9.80394 1.875 16.875 1.875H26.875C33.946 1.875 37.4815 1.875 39.6783 4.09158C41.875 6.30813 41.875 9.87563 41.875 17.0107V43.4895C41.875 47.2688 41.875 49.1583 40.72 49.902C38.8328 51.1178 35.9153 48.5685 34.4478 47.6433C33.2353 46.8785 32.6293 46.4963 31.9563 46.4743C31.2293 46.4503 30.6123 46.817 29.3023 47.6433L24.525 50.656C23.2363 51.4685 22.592 51.875 21.875 51.875C21.158 51.875 20.5138 51.4685 19.225 50.656L14.4478 47.6433C13.2354 46.8785 12.6292 46.4963 11.9563 46.4743C11.2293 46.4503 10.6123 46.817 9.30219 47.6433C7.83489 48.5685 4.91719 51.1178 3.02989 49.902C1.87501 49.1583 1.87501 47.2688 1.87501 43.4895Z" stroke="url(#paint0_linear_2703_2175)" stroke-width="3.75" stroke-linecap="round" stroke-linejoin="round"/>
<defs>
<linearGradient id="paint0_linear_2703_2175" x1="21.875" y1="1.875" x2="21.875" y2="51.875" gradientUnits="userSpaceOnUse">
<stop stop-color="#3ABA72"/>
<stop offset="1" stop-color="#C9D857"/>
</linearGradient>
</defs>
</svg>
