<svg width="39" height="39" viewBox="0 0 39 39" fill="none" xmlns="http://www.w3.org/2000/svg">
<path d="M21.4063 1.40625H17.4063C9.86377 1.40625 6.09255 1.40625 3.74939 3.74939C1.40625 6.09255 1.40625 9.86377 1.40625 17.4063V21.4063C1.40625 28.9487 1.40625 32.7201 3.74939 35.0631C6.09255 37.4063 9.86377 37.4063 17.4063 37.4063H21.4063C28.9487 37.4063 32.7201 37.4063 35.0631 35.0631C37.4063 32.7201 37.4063 28.9487 37.4063 21.4063V17.4063C37.4063 9.86377 37.4063 6.09255 35.0631 3.74939C32.7201 1.40625 28.9487 1.40625 21.4063 1.40625Z" stroke="url(#paint0_linear_2703_2164)" stroke-width="2.8125" stroke-linecap="round" stroke-linejoin="round"/>
<defs>
<linearGradient id="paint0_linear_2703_2164" x1="19.4063" y1="1.40625" x2="19.4063" y2="37.4063" gradientUnits="userSpaceOnUse">
<stop stop-color="#3ABA72"/>
<stop offset="1" stop-color="#C9D857"/>
</linearGradient>
</defs>
</svg>
